<svg width="70" height="70" viewBox="0 0 70 70" fill="none" xmlns="http://www.w3.org/2000/svg">
<rect width="70" height="70" rx="2.97959" fill="#F2F2F2"/>
<path d="M25.1885 20.4142H19.4681C18.8441 20.4142 18.3391 20.9192 18.3391 21.5432C18.3391 22.1673 18.8441 22.6722 19.4681 22.6722H25.1885C25.8126 22.6722 26.3176 22.1673 26.3176 21.5432C26.3176 20.9192 25.8126 20.4142 25.1885 20.4142Z" fill="#414141"/>
<path d="M25.1885 29.4464H19.4681C18.8441 29.4464 18.3391 29.9514 18.3391 30.5754C18.3391 31.1995 18.8441 31.7045 19.4681 31.7045H25.1885C25.8126 31.7045 26.3176 31.1995 26.3176 30.5754C26.3176 29.9514 25.8126 29.4464 25.1885 29.4464Z" fill="#414141"/>
<path d="M22.9306 24.9303H17.2101C16.5861 24.9303 16.0811 25.4353 16.0811 26.0593C16.0811 26.6834 16.5861 27.1884 17.2101 27.1884H22.9306C23.5546 27.1884 24.0596 26.6834 24.0596 26.0593C24.0596 25.4353 23.5546 24.9303 22.9306 24.9303Z" fill="#414141"/>
<path d="M52.3608 30.5754H45.5113V26.0593C45.5113 24.0763 43.0855 23.0321 41.656 24.4635L32.6245 33.495C31.7424 34.3771 31.7424 35.806 32.6245 36.6881L37.8021 41.8658L31.4954 48.1725C30.6133 49.0545 30.6133 50.4834 31.4954 51.3655C32.3774 52.2475 33.8064 52.2476 34.6885 51.3655L42.5917 43.4623C43.4738 42.5802 43.4738 41.1513 42.5917 40.2692L37.414 35.0916L40.9952 31.5104V32.8335C40.9952 34.0805 42.0063 35.0916 43.2532 35.0916H52.3608C53.6077 35.0916 54.6188 34.0805 54.6188 32.8335C54.6188 31.5865 53.6077 30.5754 52.3608 30.5754Z" fill="#414141"/>
<path d="M37.1671 19.0999C36.2696 18.5034 35.0788 18.6215 34.318 19.3822L28.1083 25.5919C27.2263 26.474 27.2263 27.9029 28.1083 28.7849C28.9904 29.667 30.4194 29.6669 31.3015 28.7849L36.2024 23.884L37.8533 25.0732L40.0591 22.8674C40.4281 22.4984 40.8633 22.212 41.3392 21.9884L37.1671 19.0999Z" fill="#414141"/>
<path d="M31.028 38.2846C30.4559 37.7125 30.074 37.0084 29.8727 36.2469L17.9471 48.1725C17.0651 49.0545 17.0651 50.4834 17.9471 51.3655C18.8291 52.2475 20.2581 52.2476 21.1402 51.3655L32.6246 39.8812L31.028 38.2846Z" fill="#414141"/>
<path d="M46.6401 23.8012C48.5108 23.8012 50.0272 22.2848 50.0272 20.4141C50.0272 18.5435 48.5108 17.027 46.6401 17.027C44.7695 17.027 43.253 18.5435 43.253 20.4141C43.253 22.2848 44.7695 23.8012 46.6401 23.8012Z" fill="#414141"/>
</svg>
