<svg width="38" height="38" viewBox="0 0 38 38" fill="none" xmlns="http://www.w3.org/2000/svg">
<circle cx="19" cy="19" r="19" fill="white" fill-opacity="0.6"/>
<path d="M23.791 26H13.8691V23.8516L18.4395 19.0469C19.5658 17.7643 20.1289 16.7454 20.1289 15.9902C20.1289 15.3783 19.9954 14.9128 19.7285 14.5938C19.4616 14.2747 19.0742 14.1152 18.5664 14.1152C18.0651 14.1152 17.6582 14.3301 17.3457 14.7598C17.0332 15.1829 16.877 15.7135 16.877 16.3516H13.5762C13.5762 15.4792 13.7943 14.6751 14.2305 13.9395C14.6667 13.1973 15.2721 12.6178 16.0469 12.2012C16.8216 11.7845 17.6875 11.5762 18.6445 11.5762C20.181 11.5762 21.3626 11.931 22.1895 12.6406C23.0228 13.3503 23.4395 14.3691 23.4395 15.6973C23.4395 16.2572 23.3353 16.804 23.127 17.3379C22.9186 17.8652 22.5931 18.4219 22.1504 19.0078C21.7142 19.5872 21.0078 20.3652 20.0312 21.3418L18.1953 23.4609H23.791V26Z" fill="#D8176F"/>
</svg>
