<svg width="24" height="24" viewBox="0 0 24 24" fill="none" xmlns="http://www.w3.org/2000/svg">
<path d="M17.5 1H6.5C3.46243 1 1 3.46243 1 6.5V17.5C1 20.5376 3.46243 23 6.5 23H17.5C20.5376 23 23 20.5376 23 17.5V6.5C23 3.46243 20.5376 1 17.5 1Z" stroke="#828282" stroke-width="2" stroke-linecap="round" stroke-linejoin="round"/>
<path d="M16.3999 11.3068C16.5357 12.2223 16.3793 13.1573 15.9531 13.9788C15.5268 14.8002 14.8524 15.4664 14.0257 15.8825C13.199 16.2986 12.2622 16.4434 11.3485 16.2964C10.4348 16.1493 9.59066 15.7179 8.93625 15.0635C8.28184 14.4091 7.85043 13.565 7.7034 12.6513C7.55637 11.7376 7.7012 10.8007 8.11729 9.97405C8.53337 9.14738 9.19953 8.47296 10.021 8.04671C10.8425 7.62046 11.7775 7.46409 12.6929 7.59984C13.6267 7.73832 14.4913 8.17345 15.1588 8.84098C15.8263 9.50851 16.2615 10.373 16.3999 11.3068Z" stroke="#828282" stroke-width="2" stroke-linecap="round" stroke-linejoin="round"/>
<path d="M18.05 5.94995H18.0615" stroke="#828282" stroke-width="2" stroke-linecap="round" stroke-linejoin="round"/>
</svg>
