<svg width="38" height="38" viewBox="0 0 38 38" fill="none" xmlns="http://www.w3.org/2000/svg">
<circle cx="19" cy="19" r="19" fill="white" fill-opacity="0.6"/>
<path d="M16.877 17.5137H18.4297C19.6602 17.5137 20.2754 16.9115 20.2754 15.707C20.2754 15.2383 20.1289 14.8574 19.8359 14.5645C19.543 14.265 19.1296 14.1152 18.5957 14.1152C18.1595 14.1152 17.7786 14.2422 17.4531 14.4961C17.1341 14.75 16.9746 15.0658 16.9746 15.4434H13.6836C13.6836 14.6947 13.8919 14.0273 14.3086 13.4414C14.7253 12.8555 15.3014 12.3997 16.0371 12.0742C16.7793 11.7422 17.5931 11.5762 18.4785 11.5762C20.0605 11.5762 21.304 11.9375 22.209 12.6602C23.1139 13.3828 23.5664 14.3757 23.5664 15.6387C23.5664 16.2507 23.3776 16.8301 23 17.377C22.6289 17.9173 22.0853 18.3568 21.3691 18.6953C22.1243 18.9688 22.7168 19.3854 23.1465 19.9453C23.5762 20.4987 23.791 21.1855 23.791 22.0059C23.791 23.2754 23.3027 24.291 22.3262 25.0527C21.3496 25.8145 20.0671 26.1953 18.4785 26.1953C17.5475 26.1953 16.6816 26.0195 15.8809 25.668C15.0866 25.3099 14.4844 24.8184 14.0742 24.1934C13.6641 23.5618 13.459 22.8457 13.459 22.0449H16.7695C16.7695 22.4811 16.9453 22.8587 17.2969 23.1777C17.6484 23.4967 18.0814 23.6562 18.5957 23.6562C19.1751 23.6562 19.6374 23.4967 19.9824 23.1777C20.3275 22.8522 20.5 22.4388 20.5 21.9375C20.5 21.2214 20.321 20.7135 19.9629 20.4141C19.6048 20.1146 19.11 19.9648 18.4785 19.9648H16.877V17.5137Z" fill="#D8176F"/>
</svg>
